<svg viewBox="0 0 256 256" fill="none" xmlns="http://www.w3.org/2000/svg">
<g clip-path="url(#clip0_3_30)">
<path d="M57.6482 162.916C57.6482 162.916 53.0278 113.745 111.12 113.337C194.737 110.886 193.123 37.2574 193.123 37.2574C176.117 19.4051 152.144 8.28649 125.509 8.47363C74.542 8.83173 33.4008 50.434 33.7596 101.497C33.8163 125.167 42.955 146.581 57.6482 162.916Z" fill="#800080"/>
<path d="M118.8 0C163.6 0 204.9 33.6 213.5 70.6C215.4 78.9 217.6 100.4 217.6 100.4L238.1 154.5C238.5 155.5 238.7 156.4 238.7 157.6C238.7 162 235.2 165.6 230.7 165.6H217.5V193.2C217.5 214.7 200.1 232.1 178.6 232.1H163.1V256.1H57.8V176.4C34.8 158.3 20.1 130.3 20.1 98.8C20.1 44.2001 64.3 0 118.8 0ZM193.8 118.6C199.7 118.6 204.6 113.7 204.6 107.7C204.6 101.8 199.7 96.9 193.8 96.9C187.7 96.9 182.9 101.8 182.9 107.7C182.8 113.7 187.7 118.6 193.8 118.6ZM56.5 152.5C56.5 152.5 52.6 107.6 105.6 107.6C181.9 105.9 180.9 38.7 180.9 38.7C165.5 22.3 143.7 12 119.4 12C72.9 12 35.1 49.7001 35.1 96.3C35 117.9 43.2 137.5 56.5 152.5Z" fill="white"/>
</g>
<defs>
<clipPath id="clip0_3_30">
<rect width="256" height="256" fill="white" transform="matrix(-1 0 0 1 256 0)"/>
</clipPath>
</defs>
</svg>
