<svg viewBox="0 0 256 256" fill="none" xmlns="http://www.w3.org/2000/svg">
<g clip-path="url(#clip0_3_30)">
<path d="M198.352 162.916C198.352 162.916 202.972 113.745 144.88 113.337C61.2635 110.886 62.8769 37.2574 62.8769 37.2574C79.8826 19.4051 103.856 8.28649 130.491 8.47363C181.458 8.83173 222.599 50.434 222.24 101.497C222.184 125.167 213.045 146.581 198.352 162.916Z" fill="#4AF2A1"/>
<path d="M137.2 0C92.4 0 51.1 33.6 42.5 70.6C40.6 78.9 38.4 100.4 38.4 100.4L17.9 154.5C17.5 155.5 17.3 156.4 17.3 157.6C17.3 162 20.8 165.6 25.3 165.6H38.5V193.2C38.5 214.7 55.9 232.1 77.4 232.1H92.9V256.1H198.2V176.4C221.2 158.3 235.9 130.3 235.9 98.8C235.9 44.2001 191.7 0 137.2 0ZM62.2 118.6C56.3 118.6 51.4 113.7 51.4 107.7C51.4 101.8 56.3 96.9 62.2 96.9C68.3 96.9 73.1 101.8 73.1 107.7C73.2 113.7 68.3 118.6 62.2 118.6ZM199.5 152.5C199.5 152.5 203.4 107.6 150.4 107.6C74.1 105.9 75.1 38.7 75.1 38.7C90.5 22.3 112.3 12 136.6 12C183.1 12 220.9 49.7001 220.9 96.3C221 117.9 212.8 137.5 199.5 152.5Z" fill="white"/>
</g>
<defs>
<clipPath id="clip0_3_30">
<rect width="256" height="256" fill="white"/>
</clipPath>
</defs>
</svg>
